<svg width="31" height="31" viewBox="0 0 31 31" fill="none" xmlns="http://www.w3.org/2000/svg">
<path d="M27.8516 23.0078H10.1719C10.0387 23.0078 9.92969 23.1168 9.92969 23.25V24.9453C9.92969 25.0785 10.0387 25.1875 10.1719 25.1875H27.8516C27.9848 25.1875 28.0938 25.0785 28.0938 24.9453V23.25C28.0938 23.1168 27.9848 23.0078 27.8516 23.0078ZM27.8516 5.8125H10.1719C10.0387 5.8125 9.92969 5.92148 9.92969 6.05469V7.75C9.92969 7.8832 10.0387 7.99219 10.1719 7.99219H27.8516C27.9848 7.99219 28.0938 7.8832 28.0938 7.75V6.05469C28.0938 5.92148 27.9848 5.8125 27.8516 5.8125ZM27.8516 14.4102H10.1719C10.0387 14.4102 9.92969 14.5191 9.92969 14.6523V16.3477C9.92969 16.4809 10.0387 16.5898 10.1719 16.5898H27.8516C27.9848 16.5898 28.0938 16.4809 28.0938 16.3477V14.6523C28.0938 14.5191 27.9848 14.4102 27.8516 14.4102ZM6.53906 21.5547H3.02734C2.96074 21.5547 2.90625 21.6092 2.90625 21.6758V22.7051C2.90625 22.7717 2.96074 22.8262 3.02734 22.8262H5.21914V23.4468H4.13838C4.07178 23.4468 4.01729 23.5013 4.01729 23.5679V24.5972C4.01729 24.6638 4.07178 24.7183 4.13838 24.7183H5.21914V25.3691H3.02734C2.96074 25.3691 2.90625 25.4236 2.90625 25.4902V26.5195C2.90625 26.5861 2.96074 26.6406 3.02734 26.6406H6.53906C6.60566 26.6406 6.66016 26.5861 6.66016 26.5195V21.6758C6.66016 21.6092 6.60566 21.5547 6.53906 21.5547ZM3.02734 5.69141H4.17773V9.32422C4.17773 9.39082 4.23223 9.44531 4.29883 9.44531H5.50977C5.57637 9.44531 5.63086 9.39082 5.63086 9.32422V4.60156C5.63086 4.46836 5.52187 4.35938 5.38867 4.35938H3.02734C2.96074 4.35938 2.90625 4.41387 2.90625 4.48047V5.57031C2.90625 5.63691 2.96074 5.69141 3.02734 5.69141ZM6.53906 12.957H3.02734C2.96074 12.957 2.90625 13.0115 2.90625 13.0781V14.168C2.90625 14.2346 2.96074 14.2891 3.02734 14.2891H5.09805L2.96982 16.6413C2.92968 16.6864 2.90712 16.7444 2.90625 16.8048V17.9219C2.90625 17.9885 2.96074 18.043 3.02734 18.043H6.53906C6.60566 18.043 6.66016 17.9885 6.66016 17.9219V16.832C6.66016 16.7654 6.60566 16.7109 6.53906 16.7109H4.46836L6.59658 14.3587C6.63672 14.3136 6.65929 14.2556 6.66016 14.1952V13.0781C6.66016 13.0115 6.60566 12.957 6.53906 12.957Z" fill="black"/>
</svg>
