<svg width="38" height="38" viewBox="0 0 38 38" fill="none" xmlns="http://www.w3.org/2000/svg">
<path d="M30.0833 19.0001H34.8333M30.0833 19.0001C30.0853 20.4559 29.7996 21.8977 29.2426 23.2428C28.6856 24.5878 27.8682 25.8095 26.8375 26.8376M30.0833 19.0001C30.0853 17.5443 29.7996 16.1024 29.2426 14.7574C28.6856 13.4124 27.8682 12.1907 26.8375 11.1626M19 30.0834V34.8334M19 30.0834C20.4558 30.0854 21.8977 29.7997 23.2427 29.2427C24.5877 28.6856 25.8094 27.8683 26.8375 26.8376M19 30.0834C17.5442 30.0854 16.1023 29.7997 14.7573 29.2427C13.4123 28.6856 12.1906 27.8683 11.1625 26.8376M7.91666 19.0001C7.91666 16.0606 9.08437 13.2415 11.1629 11.163C13.2414 9.08445 16.0605 7.91675 19 7.91675M7.91666 19.0001H3.16666M7.91666 19.0001C7.91666 22.0607 9.158 24.8315 11.1625 26.8376M19 7.91675V3.16675M19 7.91675C22.0606 7.91675 24.8314 9.15808 26.8375 11.1626M19 3.16675H22.1667M19 3.16675H15.8333M19 34.8334H22.1667M19 34.8334H15.8333M34.8333 19.0001V15.8334M34.8333 19.0001V22.1667M3.16666 19.0001V15.8334M3.16666 19.0001V22.1667M30.875 7.12508L28.5 4.75008M30.875 7.12508L33.25 9.50008M30.875 7.12508L26.8375 11.1626M7.125 7.12508L9.5 4.75008M7.125 7.12508L4.75 9.50008M7.125 7.12508L11.0833 11.0834M7.125 30.8751L9.5 33.2501M7.125 30.8751L4.75 28.5001M7.125 30.8751L11.1625 26.8376M30.875 30.8751L28.5 33.2501M30.875 30.8751L33.25 28.5001M30.875 30.8751L26.8375 26.8376M22.1667 22.1667H22.1682" stroke="black" stroke-width="2" stroke-linecap="round" stroke-linejoin="round"/>
<path d="M16.625 19C17.9367 19 19 17.9367 19 16.625C19 15.3133 17.9367 14.25 16.625 14.25C15.3133 14.25 14.25 15.3133 14.25 16.625C14.25 17.9367 15.3133 19 16.625 19Z" stroke="black" stroke-width="2" stroke-linecap="round" stroke-linejoin="round"/>
</svg>
