<svg width="34" height="34" viewBox="0 0 34 34" fill="none" xmlns="http://www.w3.org/2000/svg">
<path d="M14.1667 12.75H8.5M8.5 8.5H12.75M25.5 25.5L19.125 21.25L15.5833 24.0833L8.5 18.4167M21.9583 15.5833C21.019 15.5833 20.1182 15.2102 19.454 14.546C18.7898 13.8818 18.4167 12.981 18.4167 12.0417C18.4167 11.1024 18.7898 10.2015 19.454 9.53733C20.1182 8.87314 21.019 8.5 21.9583 8.5C22.8976 8.5 23.7985 8.87314 24.4627 9.53733C25.1269 10.2015 25.5 11.1024 25.5 12.0417C25.5 12.981 25.1269 13.8818 24.4627 14.546C23.7985 15.2102 22.8976 15.5833 21.9583 15.5833Z" stroke="black" stroke-width="1.5" stroke-linecap="round" stroke-linejoin="round"/>
<path d="M4.25 28.9V5.1C4.25 4.87457 4.33955 4.65837 4.49896 4.49896C4.65837 4.33955 4.87457 4.25 5.1 4.25H28.9C29.1254 4.25 29.3416 4.33955 29.501 4.49896C29.6604 4.65837 29.75 4.87457 29.75 5.1V28.9C29.75 29.1254 29.6604 29.3416 29.501 29.501C29.3416 29.6604 29.1254 29.75 28.9 29.75H5.1C4.87457 29.75 4.65837 29.6604 4.49896 29.501C4.33955 29.3416 4.25 29.1254 4.25 28.9V28.9Z" stroke="black" stroke-width="1.5"/>
</svg>
