<svg width="30" height="30" viewBox="0 0 30 30" fill="none" xmlns="http://www.w3.org/2000/svg">
<path d="M17.5 23.75C22.2137 23.75 24.5712 23.75 26.035 22.285C27.5 20.8212 27.5 18.4637 27.5 13.75C27.5 9.03625 27.5 6.67875 26.035 5.215C24.5712 3.75 22.2137 3.75 17.5 3.75H12.5C7.78625 3.75 5.42875 3.75 3.965 5.215C2.5 6.67875 2.5 9.03625 2.5 13.75C2.5 18.4637 2.5 20.8212 3.965 22.285C4.78125 23.1025 5.875 23.4638 7.5 23.6225" stroke="black" stroke-width="2" stroke-linecap="round" stroke-linejoin="round"/>
<path d="M12.5 10.605C13.125 9.3675 13.75 8.75 15 8.75C16.5575 8.75 17.5 9.98625 17.5 11.2225C17.5 12.4587 16.875 12.5137 15 13.75V15M15 18.125V18.75M17.5 23.75C15.955 23.75 14.2525 24.375 12.6988 25.1813C10.2013 26.4775 8.9525 27.1263 8.3375 26.7125C7.7225 26.3 7.83875 25.0187 8.0725 22.4575L8.125 21.875" stroke="black" stroke-width="2" stroke-linecap="round"/>
</svg>
